  0
SECTION
  2
HEADER
  9
$ACADVER
  1
AC1014
  9
$HANDSEED
  5
FFFF
  9
$MEASUREMENT
 70
     1
  0
ENDSEC
  0
SECTION
  2
TABLES
  0
TABLE
  2
VPORT
  5
8
330
0
100
AcDbSymbolTable
 70
     4
  0
VPORT
  5
2E
330
8
100
AcDbSymbolTableRecord
100
AcDbViewportTableRecord
  2
*ACTIVE
 70
     0
 10
0.0
 20
0.0
 11
1.0
 21
1.0
 12
210.0
 22
148.5
 13
0.0
 23
0.0
 14
10.0
 24
10.0
 15
10.0
 25
10.0
 16
0.0
 26
0.0
 36
1.0
 17
0.0
 27
0.0
 37
0.0
 40
341.0
 41
1.24
 42
50.0
 43
0.0
 44
0.0
 50
0.0
 51
0.0
 71
     0
 72
   100
 73
     1
 74
     3
 75
     0
 76
     0
 77
     0
 78
     0
  0
ENDTAB
  0
TABLE
  2
LTYPE
  5
5
330
0
100
AcDbSymbolTable
 70
     1
  0
LTYPE
  5
14
330
5
100
AcDbSymbolTableRecord
100
AcDbLinetypeTableRecord
  2
BYBLOCK
 70
     0
  3

 72
    65
 73
     0
 40
0.0
  0
LTYPE
  5
15
330
5
100
AcDbSymbolTableRecord
100
AcDbLinetypeTableRecord
  2
BYLAYER
 70
     0
  3

 72
    65
 73
     0
 40
0.0
  0
LTYPE
  5
16
330
5
100
AcDbSymbolTableRecord
100
AcDbLinetypeTableRecord
  2
CONTINUOUS
 70
     0
  3
Solid line
 72
    65
 73
     0
 40
0.0
  0
ENDTAB
  0
TABLE
  2
LAYER
  5
2
100
AcDbSymbolTable
 70
2
  0
LAYER
  5
50
100
AcDbSymbolTableRecord
100
AcDbLayerTableRecord
  2
0
 70
0
  6
CONTINUOUS
  0
LAYER
  5
51
100
AcDbSymbolTableRecord
100
AcDbLayerTableRecord
  2
FORMAT
 70
0
  6
CONTINUOUS
  0
ENDTAB
  0
TABLE
  2
STYLE
  5
3
330
0
100
AcDbSymbolTable
 70
     1
  0
STYLE
  5
11
330
3
100
AcDbSymbolTableRecord
100
AcDbTextStyleTableRecord
  2
STANDARD
 70
     0
 40
0.0
 41
1.0
 50
0.0
 71
     0
 42
2.5
  3
txt
  4

  0
ENDTAB
  0
TABLE
  2
VIEW
  5
6
330
0
100
AcDbSymbolTable
 70
     0
  0
ENDTAB
  0
TABLE
  2
UCS
  5
7
330
0
100
AcDbSymbolTable
 70
     0
  0
ENDTAB
  0
TABLE
  2
APPID
  5
9
330
0
100
AcDbSymbolTable
 70
     2
  0
APPID
  5
12
330
9
100
AcDbSymbolTableRecord
100
AcDbRegAppTableRecord
  2
ACAD
 70
     0
  0
ENDTAB
  0
TABLE
  2
DIMSTYLE
  5
A
330
0
100
AcDbSymbolTable
 70
     1
  0
DIMSTYLE
105
27
330
A
100
AcDbSymbolTableRecord
100
AcDbDimStyleTableRecord
  2
ISO-25
 70
     0
  3

  4

  5

  6

  7

 40
1.0
 41
2.5
 42
0.625
 43
3.75
 44
1.25
 45
0.0
 46
0.0
 47
0.0
 48
0.0
140
2.5
141
2.5
142
0.0
143
0.03937007874016
144
1.0
145
0.0
146
1.0
147
0.625
 71
     0
 72
     0
 73
     0
 74
     0
 75
     0
 76
     0
 77
     1
 78
     8
170
     0
171
     3
172
     1
173
     0
174
     0
175
     0
176
     0
177
     0
178
     0
270
     2
271
     2
272
     2
273
     2
274
     3
340
11
275
     0
280
     0
281
     0
282
     0
283
     0
284
     8
285
     0
286
     0
287
     3
288
     0
  0
ENDTAB
  0
TABLE
  2
BLOCK_RECORD
  5
1
330
0
100
AcDbSymbolTable
 70
     1
  0
BLOCK_RECORD
  5
1F
330
1
100
AcDbSymbolTableRecord
100
AcDbBlockTableRecord
  2
*MODEL_SPACE
  0
BLOCK_RECORD
  5
1B
330
1
100
AcDbSymbolTableRecord
100
AcDbBlockTableRecord
  2
*PAPER_SPACE
  0
ENDTAB
  0
ENDSEC
  0
SECTION
  2
BLOCKS
  0
BLOCK
  5
20
330
1F
100
AcDbEntity
  8
0
100
AcDbBlockBegin
  2
*MODEL_SPACE
 70
     0
 10
0.0
 20
0.0
 30
0.0
  3
*MODEL_SPACE
  1

  0
ENDBLK
  5
21
330
1F
100
AcDbEntity
  8
0
100
AcDbBlockEnd
  0
BLOCK
  5
1C
330
1B
100
AcDbEntity
 67
     1
  8
0
100
AcDbBlockBegin
  2
*PAPER_SPACE
  1

  0
ENDBLK
  5
1D
330
1B
100
AcDbEntity
 67
     1
  8
0
100
AcDbBlockEnd
  0
ENDSEC
  0
SECTION
  2
ENTITIES
  0
SPLINE
  5
100
100
AcDbEntity
  8
FORMAT
 62
7
100
AcDbSpline
 70
8
 71
3
 72
8
 73
4
 74
0
 40
0
 40
0
 40
0
 40
0
 40
1
 40
1
 40
1
 40
1
 10
78.991460
 20
176.562173
 30
0.0
 10
75.677889
 20
176.562173
 30
0.0
 10
72.991416
 20
173.875982
 30
0.0
 10
72.991416
 20
170.562129
 30
0.0
  0
LWPOLYLINE
  5
101
100
AcDbEntity
  8
FORMAT
 62
7
100
AcDbPolyline
 90
2
 70
0
 10
131.991947
 20
176.562173
 30
0.0
 10
78.991460
 20
176.562173
 30
0.0
  0
SPLINE
  5
102
100
AcDbEntity
  8
FORMAT
 62
7
100
AcDbSpline
 70
8
 71
3
 72
8
 73
4
 74
0
 40
0
 40
0
 40
0
 40
0
 40
1
 40
1
 40
1
 40
1
 10
72.991416
 20
169.562216
 30
0.0
 10
72.991416
 20
166.248362
 30
0.0
 10
75.677889
 20
163.562171
 30
0.0
 10
78.991460
 20
163.562171
 30
0.0
  0
LWPOLYLINE
  5
103
100
AcDbEntity
  8
FORMAT
 62
7
100
AcDbPolyline
 90
2
 70
0
 10
72.991416
 20
170.562129
 30
0.0
 10
72.991416
 20
169.562216
 30
0.0
  0
SPLINE
  5
104
100
AcDbEntity
  8
FORMAT
 62
7
100
AcDbSpline
 70
8
 71
3
 72
8
 73
4
 74
0
 40
0
 40
0
 40
0
 40
0
 40
1
 40
1
 40
1
 40
1
 10
131.991664
 20
163.562171
 30
0.0
 10
135.304953
 20
163.562171
 30
0.0
 10
137.991709
 20
166.248362
 30
0.0
 10
137.991709
 20
169.562216
 30
0.0
  0
LWPOLYLINE
  5
105
100
AcDbEntity
  8
FORMAT
 62
7
100
AcDbPolyline
 90
2
 70
0
 10
78.991460
 20
163.562171
 30
0.0
 10
131.991664
 20
163.562171
 30
0.0
  0
SPLINE
  5
106
100
AcDbEntity
  8
FORMAT
 62
7
100
AcDbSpline
 70
8
 71
3
 72
8
 73
4
 74
0
 40
0
 40
0
 40
0
 40
0
 40
1
 40
1
 40
1
 40
1
 10
137.991709
 20
170.562129
 30
0.0
 10
137.991991
 20
173.875982
 30
0.0
 10
135.305236
 20
176.562173
 30
0.0
 10
131.991947
 20
176.562173
 30
0.0
  0
LWPOLYLINE
  5
107
100
AcDbEntity
  8
FORMAT
 62
7
100
AcDbPolyline
 90
2
 70
0
 10
137.991709
 20
169.562216
 30
0.0
 10
137.991709
 20
170.562129
 30
0.0
  0
SPLINE
  5
108
100
AcDbEntity
  8
FORMAT
 62
7
100
AcDbSpline
 70
8
 71
3
 72
8
 73
4
 74
0
 40
0
 40
0
 40
0
 40
0
 40
1
 40
1
 40
1
 40
1
 10
80.491753
 20
167.562107
 30
0.0
 10
79.110840
 20
167.562107
 30
0.0
 10
77.991829
 20
168.681400
 30
0.0
 10
77.991829
 20
170.062031
 30
0.0
  0
SPLINE
  5
109
100
AcDbEntity
  8
FORMAT
 62
7
100
AcDbSpline
 70
8
 71
3
 72
8
 73
4
 74
0
 40
0
 40
0
 40
0
 40
0
 40
1
 40
1
 40
1
 40
1
 10
77.991829
 20
170.062031
 30
0.0
 10
77.991829
 20
171.442662
 30
0.0
 10
79.111122
 20
172.561956
 30
0.0
 10
80.491753
 20
172.561956
 30
0.0
  0
SPLINE
  5
10a
100
AcDbEntity
  8
FORMAT
 62
7
100
AcDbSpline
 70
8
 71
3
 72
8
 73
4
 74
0
 40
0
 40
0
 40
0
 40
0
 40
1
 40
1
 40
1
 40
1
 10
80.491753
 20
172.561956
 30
0.0
 10
81.872384
 20
172.561956
 30
0.0
 10
82.991678
 20
171.442662
 30
0.0
 10
82.991678
 20
170.062031
 30
0.0
  0
SPLINE
  5
10b
100
AcDbEntity
  8
FORMAT
 62
7
100
AcDbSpline
 70
8
 71
3
 72
8
 73
4
 74
0
 40
0
 40
0
 40
0
 40
0
 40
1
 40
1
 40
1
 40
1
 10
82.991678
 20
170.062031
 30
0.0
 10
82.991678
 20
168.681400
 30
0.0
 10
81.872384
 20
167.562107
 30
0.0
 10
80.491753
 20
167.562107
 30
0.0
  0
LWPOLYLINE
  5
10c
100
AcDbEntity
  8
FORMAT
 62
7
100
AcDbPolyline
 90
2
 70
0
 10
131.991947
 20
176.562173
 30
0.0
 10
131.991947
 20
176.562173
 30
0.0
  0
SPLINE
  5
10d
100
AcDbEntity
  8
FORMAT
 62
7
100
AcDbSpline
 70
8
 71
3
 72
8
 73
4
 74
0
 40
0
 40
0
 40
0
 40
0
 40
1
 40
1
 40
1
 40
1
 10
97.991789
 20
170.045098
 30
0.0
 10
97.986709
 20
168.664467
 30
0.0
 10
96.864029
 20
167.548842
 30
0.0
 10
95.483116
 20
167.553640
 30
0.0
  0
SPLINE
  5
10e
100
AcDbEntity
  8
FORMAT
 62
7
100
AcDbSpline
 70
8
 71
3
 72
8
 73
4
 74
0
 40
0
 40
0
 40
0
 40
0
 40
1
 40
1
 40
1
 40
1
 10
95.483116
 20
167.553640
 30
0.0
 10
94.102202
 20
167.558438
 30
0.0
 10
92.986578
 20
168.681682
 30
0.0
 10
92.991658
 20
170.062313
 30
0.0
  0
SPLINE
  5
10f
100
AcDbEntity
  8
FORMAT
 62
7
100
AcDbSpline
 70
8
 71
3
 72
8
 73
4
 74
0
 40
0
 40
0
 40
0
 40
0
 40
1
 40
1
 40
1
 40
1
 10
92.991658
 20
170.062313
 30
0.0
 10
92.991658
 20
170.068240
 30
0.0
 10
92.991658
 20
170.073884
 30
0.0
 10
92.991658
 20
170.079529
 30
0.0
  0
SPLINE
  5
110
100
AcDbEntity
  8
FORMAT
 62
7
100
AcDbSpline
 70
8
 71
3
 72
8
 73
4
 74
0
 40
0
 40
0
 40
0
 40
0
 40
1
 40
1
 40
1
 40
1
 10
92.991658
 20
170.079529
 30
0.0
 10
92.996738
 20
171.460160
 30
0.0
 10
94.119418
 20
172.575784
 30
0.0
 10
95.500331
 20
172.570987
 30
0.0
  0
SPLINE
  5
111
100
AcDbEntity
  8
FORMAT
 62
7
100
AcDbSpline
 70
8
 71
3
 72
8
 73
4
 74
0
 40
0
 40
0
 40
0
 40
0
 40
1
 40
1
 40
1
 40
1
 10
95.500331
 20
172.570987
 30
0.0
 10
96.881244
 20
172.566189
 30
0.0
 10
97.996304
 20
171.442944
 30
0.0
 10
97.991789
 20
170.062313
 30
0.0
  0
SPLINE
  5
112
100
AcDbEntity
  8
FORMAT
 62
7
100
AcDbSpline
 70
8
 71
3
 72
8
 73
4
 74
0
 40
0
 40
0
 40
0
 40
0
 40
1
 40
1
 40
1
 40
1
 10
97.991789
 20
170.062313
 30
0.0
 10
97.991789
 20
170.056387
 30
0.0
 10
97.991789
 20
170.050742
 30
0.0
 10
97.991789
 20
170.045098
 30
0.0
  0
LWPOLYLINE
  5
113
100
AcDbEntity
  8
FORMAT
 62
7
100
AcDbPolyline
 90
2
 70
0
 10
80.491753
 20
167.562107
 30
0.0
 10
80.491753
 20
167.562107
 30
0.0
  0
SPLINE
  5
114
100
AcDbEntity
  8
FORMAT
 62
7
100
AcDbSpline
 70
8
 71
3
 72
8
 73
4
 74
0
 40
0
 40
0
 40
0
 40
0
 40
1
 40
1
 40
1
 40
1
 10
115.491824
 20
167.562107
 30
0.0
 10
114.110911
 20
167.562107
 30
0.0
 10
112.991618
 20
168.681400
 30
0.0
 10
112.991618
 20
170.062031
 30
0.0
  0
SPLINE
  5
115
100
AcDbEntity
  8
FORMAT
 62
7
100
AcDbSpline
 70
8
 71
3
 72
8
 73
4
 74
0
 40
0
 40
0
 40
0
 40
0
 40
1
 40
1
 40
1
 40
1
 10
112.991618
 20
170.062031
 30
0.0
 10
112.991618
 20
171.442662
 30
0.0
 10
114.111193
 20
172.561956
 30
0.0
 10
115.491824
 20
172.561956
 30
0.0
  0
SPLINE
  5
116
100
AcDbEntity
  8
FORMAT
 62
7
100
AcDbSpline
 70
8
 71
3
 72
8
 73
4
 74
0
 40
0
 40
0
 40
0
 40
0
 40
1
 40
1
 40
1
 40
1
 10
115.491824
 20
172.561956
 30
0.0
 10
116.872456
 20
172.561956
 30
0.0
 10
117.991467
 20
171.442662
 30
0.0
 10
117.991467
 20
170.062031
 30
0.0
  0
SPLINE
  5
117
100
AcDbEntity
  8
FORMAT
 62
7
100
AcDbSpline
 70
8
 71
3
 72
8
 73
4
 74
0
 40
0
 40
0
 40
0
 40
0
 40
1
 40
1
 40
1
 40
1
 10
117.991467
 20
170.062031
 30
0.0
 10
117.991467
 20
168.681400
 30
0.0
 10
116.872456
 20
167.562107
 30
0.0
 10
115.491824
 20
167.562107
 30
0.0
  0
LWPOLYLINE
  5
118
100
AcDbEntity
  8
FORMAT
 62
7
100
AcDbPolyline
 90
2
 70
0
 10
97.991789
 20
170.045098
 30
0.0
 10
97.991789
 20
170.045098
 30
0.0
  0
SPLINE
  5
119
100
AcDbEntity
  8
FORMAT
 62
7
100
AcDbSpline
 70
8
 71
3
 72
8
 73
4
 74
0
 40
0
 40
0
 40
0
 40
0
 40
1
 40
1
 40
1
 40
1
 10
132.991860
 20
170.045098
 30
0.0
 10
132.986780
 20
168.664467
 30
0.0
 10
131.864100
 20
167.548842
 30
0.0
 10
130.483187
 20
167.553640
 30
0.0
  0
SPLINE
  5
11a
100
AcDbEntity
  8
FORMAT
 62
7
100
AcDbSpline
 70
8
 71
3
 72
8
 73
4
 74
0
 40
0
 40
0
 40
0
 40
0
 40
1
 40
1
 40
1
 40
1
 10
130.483187
 20
167.553640
 30
0.0
 10
129.102273
 20
167.558438
 30
0.0
 10
127.986649
 20
168.681682
 30
0.0
 10
127.991729
 20
170.062313
 30
0.0
  0
SPLINE
  5
11b
100
AcDbEntity
  8
FORMAT
 62
7
100
AcDbSpline
 70
8
 71
3
 72
8
 73
4
 74
0
 40
0
 40
0
 40
0
 40
0
 40
1
 40
1
 40
1
 40
1
 10
127.991729
 20
170.062313
 30
0.0
 10
127.991729
 20
170.068240
 30
0.0
 10
127.991729
 20
170.073884
 30
0.0
 10
127.991729
 20
170.079529
 30
0.0
  0
SPLINE
  5
11c
100
AcDbEntity
  8
FORMAT
 62
7
100
AcDbSpline
 70
8
 71
3
 72
8
 73
4
 74
0
 40
0
 40
0
 40
0
 40
0
 40
1
 40
1
 40
1
 40
1
 10
127.991729
 20
170.079529
 30
0.0
 10
127.996809
 20
171.460160
 30
0.0
 10
129.119489
 20
172.575784
 30
0.0
 10
130.500402
 20
172.570987
 30
0.0
  0
SPLINE
  5
11d
100
AcDbEntity
  8
FORMAT
 62
7
100
AcDbSpline
 70
8
 71
3
 72
8
 73
4
 74
0
 40
0
 40
0
 40
0
 40
0
 40
1
 40
1
 40
1
 40
1
 10
130.500402
 20
172.570987
 30
0.0
 10
131.881316
 20
172.566189
 30
0.0
 10
132.996376
 20
171.442944
 30
0.0
 10
132.991860
 20
170.062313
 30
0.0
  0
SPLINE
  5
11e
100
AcDbEntity
  8
FORMAT
 62
7
100
AcDbSpline
 70
8
 71
3
 72
8
 73
4
 74
0
 40
0
 40
0
 40
0
 40
0
 40
1
 40
1
 40
1
 40
1
 10
132.991860
 20
170.062313
 30
0.0
 10
132.991860
 20
170.056387
 30
0.0
 10
132.991860
 20
170.050742
 30
0.0
 10
132.991860
 20
170.045098
 30
0.0
  0
LWPOLYLINE
  5
11f
100
AcDbEntity
  8
FORMAT
 62
7
100
AcDbPolyline
 90
2
 70
0
 10
115.491824
 20
167.562107
 30
0.0
 10
115.491824
 20
167.562107
 30
0.0
  0
SPLINE
  5
120
100
AcDbEntity
  8
FORMAT
 62
7
100
AcDbSpline
 70
8
 71
3
 72
8
 73
4
 74
0
 40
0
 40
0
 40
0
 40
0
 40
1
 40
1
 40
1
 40
1
 10
130.991297
 20
197.045594
 30
0.0
 10
129.610383
 20
197.045594
 30
0.0
 10
128.491655
 20
198.164887
 30
0.0
 10
128.491655
 20
199.545518
 30
0.0
  0
SPLINE
  5
121
100
AcDbEntity
  8
FORMAT
 62
7
100
AcDbSpline
 70
8
 71
3
 72
8
 73
4
 74
0
 40
0
 40
0
 40
0
 40
0
 40
1
 40
1
 40
1
 40
1
 10
128.491655
 20
199.545518
 30
0.0
 10
128.491655
 20
200.926149
 30
0.0
 10
129.610666
 20
202.045442
 30
0.0
 10
130.991297
 20
202.045442
 30
0.0
  0
SPLINE
  5
122
100
AcDbEntity
  8
FORMAT
 62
7
100
AcDbSpline
 70
8
 71
3
 72
8
 73
4
 74
0
 40
0
 40
0
 40
0
 40
0
 40
1
 40
1
 40
1
 40
1
 10
130.991297
 20
202.045442
 30
0.0
 10
132.371928
 20
202.045442
 30
0.0
 10
133.491503
 20
200.926149
 30
0.0
 10
133.491503
 20
199.545518
 30
0.0
  0
SPLINE
  5
123
100
AcDbEntity
  8
FORMAT
 62
7
100
AcDbSpline
 70
8
 71
3
 72
8
 73
4
 74
0
 40
0
 40
0
 40
0
 40
0
 40
1
 40
1
 40
1
 40
1
 10
133.491503
 20
199.545518
 30
0.0
 10
133.491503
 20
198.164887
 30
0.0
 10
132.372210
 20
197.045594
 30
0.0
 10
130.991297
 20
197.045594
 30
0.0
  0
LWPOLYLINE
  5
124
100
AcDbEntity
  8
FORMAT
 62
7
100
AcDbPolyline
 90
2
 70
0
 10
132.991860
 20
170.045098
 30
0.0
 10
132.991860
 20
170.045098
 30
0.0
  0
SPLINE
  5
125
100
AcDbEntity
  8
FORMAT
 62
7
100
AcDbSpline
 70
8
 71
3
 72
8
 73
4
 74
0
 40
0
 40
0
 40
0
 40
0
 40
1
 40
1
 40
1
 40
1
 10
115.991750
 20
202.045725
 30
0.0
 10
117.372663
 20
202.045725
 30
0.0
 10
118.491392
 20
200.926431
 30
0.0
 10
118.491392
 20
199.545800
 30
0.0
  0
SPLINE
  5
126
100
AcDbEntity
  8
FORMAT
 62
7
100
AcDbSpline
 70
8
 71
3
 72
8
 73
4
 74
0
 40
0
 40
0
 40
0
 40
0
 40
1
 40
1
 40
1
 40
1
 10
118.491392
 20
199.545800
 30
0.0
 10
118.491392
 20
198.165169
 30
0.0
 10
117.372381
 20
197.045876
 30
0.0
 10
115.991750
 20
197.045876
 30
0.0
  0
SPLINE
  5
127
100
AcDbEntity
  8
FORMAT
 62
7
100
AcDbSpline
 70
8
 71
3
 72
8
 73
4
 74
0
 40
0
 40
0
 40
0
 40
0
 40
1
 40
1
 40
1
 40
1
 10
115.991750
 20
197.045876
 30
0.0
 10
114.611119
 20
197.045876
 30
0.0
 10
113.491543
 20
198.165169
 30
0.0
 10
113.491543
 20
199.545800
 30
0.0
  0
SPLINE
  5
128
100
AcDbEntity
  8
FORMAT
 62
7
100
AcDbSpline
 70
8
 71
3
 72
8
 73
4
 74
0
 40
0
 40
0
 40
0
 40
0
 40
1
 40
1
 40
1
 40
1
 10
113.491543
 20
199.545800
 30
0.0
 10
113.491543
 20
200.926431
 30
0.0
 10
114.610837
 20
202.045725
 30
0.0
 10
115.991750
 20
202.045725
 30
0.0
  0
LWPOLYLINE
  5
129
100
AcDbEntity
  8
FORMAT
 62
7
100
AcDbPolyline
 90
3
 70
0
 10
130.991297
 20
197.045594
 30
0.0
 10
130.991297
 20
197.045594
 30
0.0
 10
130.991297
 20
197.045594
 30
0.0
  0
SPLINE
  5
12a
100
AcDbEntity
  8
FORMAT
 62
7
100
AcDbSpline
 70
8
 71
3
 72
8
 73
4
 74
0
 40
0
 40
0
 40
0
 40
0
 40
1
 40
1
 40
1
 40
1
 10
78.491599
 20
206.045660
 30
0.0
 10
75.178028
 20
206.045660
 30
0.0
 10
72.491555
 20
203.359187
 30
0.0
 10
72.491555
 20
200.045616
 30
0.0
  0
LWPOLYLINE
  5
12b
100
AcDbEntity
  8
FORMAT
 62
7
100
AcDbPolyline
 90
2
 70
0
 10
115.991750
 20
202.045725
 30
0.0
 10
115.991750
 20
202.045725
 30
0.0
  0
SPLINE
  5
12c
100
AcDbEntity
  8
FORMAT
 62
7
100
AcDbSpline
 70
8
 71
3
 72
8
 73
4
 74
0
 40
0
 40
0
 40
0
 40
0
 40
1
 40
1
 40
1
 40
1
 10
72.491555
 20
199.045702
 30
0.0
 10
72.491555
 20
195.731849
 30
0.0
 10
75.178028
 20
193.045658
 30
0.0
 10
78.491599
 20
193.045658
 30
0.0
  0
LWPOLYLINE
  5
12d
100
AcDbEntity
  8
FORMAT
 62
7
100
AcDbPolyline
 90
2
 70
0
 10
72.491555
 20
200.045616
 30
0.0
 10
72.491555
 20
199.045702
 30
0.0
  0
SPLINE
  5
12e
100
AcDbEntity
  8
FORMAT
 62
7
100
AcDbSpline
 70
8
 71
3
 72
8
 73
4
 74
0
 40
0
 40
0
 40
0
 40
0
 40
1
 40
1
 40
1
 40
1
 10
132.491590
 20
193.045658
 30
0.0
 10
135.804879
 20
193.045658
 30
0.0
 10
138.491635
 20
195.731849
 30
0.0
 10
138.491635
 20
199.045702
 30
0.0
  0
LWPOLYLINE
  5
12f
100
AcDbEntity
  8
FORMAT
 62
7
100
AcDbPolyline
 90
3
 70
0
 10
78.491599
 20
193.045658
 30
0.0
 10
105.491593
 20
193.045658
 30
0.0
 10
132.491590
 20
193.045658
 30
0.0
  0
SPLINE
  5
130
100
AcDbEntity
  8
FORMAT
 62
7
100
AcDbSpline
 70
8
 71
3
 72
8
 73
4
 74
0
 40
0
 40
0
 40
0
 40
0
 40
1
 40
1
 40
1
 40
1
 10
138.491635
 20
200.045616
 30
0.0
 10
138.491917
 20
203.359469
 30
0.0
 10
135.805161
 20
206.045660
 30
0.0
 10
132.491872
 20
206.045660
 30
0.0
  0
LWPOLYLINE
  5
131
100
AcDbEntity
  8
FORMAT
 62
7
100
AcDbPolyline
 90
2
 70
0
 10
138.491635
 20
199.045702
 30
0.0
 10
138.491635
 20
200.045616
 30
0.0
  0
LWPOLYLINE
  5
132
100
AcDbEntity
  8
FORMAT
 62
7
100
AcDbPolyline
 90
4
 70
0
 10
132.491872
 20
206.045660
 30
0.0
 10
132.491872
 20
206.045660
 30
0.0
 10
105.491734
 20
206.045660
 30
0.0
 10
78.491599
 20
206.045660
 30
0.0
  0
SPLINE
  5
133
100
AcDbEntity
  8
FORMAT
 62
7
100
AcDbSpline
 70
8
 71
3
 72
8
 73
4
 74
0
 40
0
 40
0
 40
0
 40
0
 40
1
 40
1
 40
1
 40
1
 10
78.991460
 20
163.335829
 30
0.0
 10
75.677889
 20
163.335829
 30
0.0
 10
72.991416
 20
160.649638
 30
0.0
 10
72.991416
 20
157.335784
 30
0.0
  0
LWPOLYLINE
  5
134
100
AcDbEntity
  8
FORMAT
 62
7
100
AcDbPolyline
 90
2
 70
0
 10
131.991947
 20
163.335829
 30
0.0
 10
78.991460
 20
163.335829
 30
0.0
  0
SPLINE
  5
135
100
AcDbEntity
  8
FORMAT
 62
7
100
AcDbSpline
 70
8
 71
3
 72
8
 73
4
 74
0
 40
0
 40
0
 40
0
 40
0
 40
1
 40
1
 40
1
 40
1
 10
72.991416
 20
156.335871
 30
0.0
 10
72.991416
 20
153.022300
 30
0.0
 10
75.677889
 20
150.335827
 30
0.0
 10
78.991460
 20
150.335827
 30
0.0
  0
LWPOLYLINE
  5
136
100
AcDbEntity
  8
FORMAT
 62
7
100
AcDbPolyline
 90
2
 70
0
 10
72.991416
 20
157.335784
 30
0.0
 10
72.991416
 20
156.335871
 30
0.0
  0
SPLINE
  5
137
100
AcDbEntity
  8
FORMAT
 62
7
100
AcDbSpline
 70
8
 71
3
 72
8
 73
4
 74
0
 40
0
 40
0
 40
0
 40
0
 40
1
 40
1
 40
1
 40
1
 10
131.991664
 20
150.335827
 30
0.0
 10
135.304953
 20
150.335827
 30
0.0
 10
137.991709
 20
153.022300
 30
0.0
 10
137.991709
 20
156.335871
 30
0.0
  0
LWPOLYLINE
  5
138
100
AcDbEntity
  8
FORMAT
 62
7
100
AcDbPolyline
 90
2
 70
0
 10
78.991460
 20
150.335827
 30
0.0
 10
131.991664
 20
150.335827
 30
0.0
  0
SPLINE
  5
139
100
AcDbEntity
  8
FORMAT
 62
7
100
AcDbSpline
 70
8
 71
3
 72
8
 73
4
 74
0
 40
0
 40
0
 40
0
 40
0
 40
1
 40
1
 40
1
 40
1
 10
137.991709
 20
157.335784
 30
0.0
 10
137.991991
 20
160.649638
 30
0.0
 10
135.305236
 20
163.335829
 30
0.0
 10
131.991947
 20
163.335829
 30
0.0
  0
LWPOLYLINE
  5
13a
100
AcDbEntity
  8
FORMAT
 62
7
100
AcDbPolyline
 90
2
 70
0
 10
137.991709
 20
156.335871
 30
0.0
 10
137.991709
 20
157.335784
 30
0.0
  0
SPLINE
  5
13b
100
AcDbEntity
  8
FORMAT
 62
7
100
AcDbSpline
 70
8
 71
3
 72
8
 73
4
 74
0
 40
0
 40
0
 40
0
 40
0
 40
1
 40
1
 40
1
 40
1
 10
80.491753
 20
154.336044
 30
0.0
 10
79.110840
 20
154.336044
 30
0.0
 10
77.991829
 20
155.455056
 30
0.0
 10
77.991829
 20
156.835687
 30
0.0
  0
SPLINE
  5
13c
100
AcDbEntity
  8
FORMAT
 62
7
100
AcDbSpline
 70
8
 71
3
 72
8
 73
4
 74
0
 40
0
 40
0
 40
0
 40
0
 40
1
 40
1
 40
1
 40
1
 10
77.991829
 20
156.835687
 30
0.0
 10
77.991829
 20
158.216318
 30
0.0
 10
79.111122
 20
159.335893
 30
0.0
 10
80.491753
 20
159.335893
 30
0.0
  0
SPLINE
  5
13d
100
AcDbEntity
  8
FORMAT
 62
7
100
AcDbSpline
 70
8
 71
3
 72
8
 73
4
 74
0
 40
0
 40
0
 40
0
 40
0
 40
1
 40
1
 40
1
 40
1
 10
80.491753
 20
159.335893
 30
0.0
 10
81.872384
 20
159.335893
 30
0.0
 10
82.991678
 20
158.216318
 30
0.0
 10
82.991678
 20
156.835687
 30
0.0
  0
SPLINE
  5
13e
100
AcDbEntity
  8
FORMAT
 62
7
100
AcDbSpline
 70
8
 71
3
 72
8
 73
4
 74
0
 40
0
 40
0
 40
0
 40
0
 40
1
 40
1
 40
1
 40
1
 10
82.991678
 20
156.835687
 30
0.0
 10
82.991678
 20
155.455056
 30
0.0
 10
81.872384
 20
154.336044
 30
0.0
 10
80.491753
 20
154.336044
 30
0.0
  0
LWPOLYLINE
  5
13f
100
AcDbEntity
  8
FORMAT
 62
7
100
AcDbPolyline
 90
2
 70
0
 10
131.991947
 20
163.335829
 30
0.0
 10
131.991947
 20
163.335829
 30
0.0
  0
SPLINE
  5
140
100
AcDbEntity
  8
FORMAT
 62
7
100
AcDbSpline
 70
8
 71
3
 72
8
 73
4
 74
0
 40
0
 40
0
 40
0
 40
0
 40
1
 40
1
 40
1
 40
1
 10
97.991789
 20
156.818471
 30
0.0
 10
97.986709
 20
155.437558
 30
0.0
 10
96.864029
 20
154.322216
 30
0.0
 10
95.483116
 20
154.327013
 30
0.0
  0
SPLINE
  5
141
100
AcDbEntity
  8
FORMAT
 62
7
100
AcDbSpline
 70
8
 71
3
 72
8
 73
4
 74
0
 40
0
 40
0
 40
0
 40
0
 40
1
 40
1
 40
1
 40
1
 10
95.483116
 20
154.327013
 30
0.0
 10
94.102202
 20
154.332093
 30
0.0
 10
92.986578
 20
155.455056
 30
0.0
 10
92.991658
 20
156.835687
 30
0.0
  0
SPLINE
  5
142
100
AcDbEntity
  8
FORMAT
 62
7
100
AcDbSpline
 70
8
 71
3
 72
8
 73
4
 74
0
 40
0
 40
0
 40
0
 40
0
 40
1
 40
1
 40
1
 40
1
 10
92.991658
 20
156.835687
 30
0.0
 10
92.991658
 20
156.841613
 30
0.0
 10
92.991658
 20
156.847258
 30
0.0
 10
92.991658
 20
156.853184
 30
0.0
  0
SPLINE
  5
143
100
AcDbEntity
  8
FORMAT
 62
7
100
AcDbSpline
 70
8
 71
3
 72
8
 73
4
 74
0
 40
0
 40
0
 40
0
 40
0
 40
1
 40
1
 40
1
 40
1
 10
92.991658
 20
156.853184
 30
0.0
 10
92.996738
 20
158.233816
 30
0.0
 10
94.119418
 20
159.349440
 30
0.0
 10
95.500331
 20
159.344360
 30
0.0
  0
SPLINE
  5
144
100
AcDbEntity
  8
FORMAT
 62
7
100
AcDbSpline
 70
8
 71
3
 72
8
 73
4
 74
0
 40
0
 40
0
 40
0
 40
0
 40
1
 40
1
 40
1
 40
1
 10
95.500331
 20
159.344360
 30
0.0
 10
96.881244
 20
159.339844
 30
0.0
 10
97.996304
 20
158.216600
 30
0.0
 10
97.991789
 20
156.835687
 30
0.0
  0
SPLINE
  5
145
100
AcDbEntity
  8
FORMAT
 62
7
100
AcDbSpline
 70
8
 71
3
 72
8
 73
4
 74
0
 40
0
 40
0
 40
0
 40
0
 40
1
 40
1
 40
1
 40
1
 10
97.991789
 20
156.835687
 30
0.0
 10
97.991789
 20
156.830042
 30
0.0
 10
97.991789
 20
156.824398
 30
0.0
 10
97.991789
 20
156.818471
 30
0.0
  0
LWPOLYLINE
  5
146
100
AcDbEntity
  8
FORMAT
 62
7
100
AcDbPolyline
 90
2
 70
0
 10
80.491753
 20
154.336044
 30
0.0
 10
80.491753
 20
154.336044
 30
0.0
  0
SPLINE
  5
147
100
AcDbEntity
  8
FORMAT
 62
7
100
AcDbSpline
 70
8
 71
3
 72
8
 73
4
 74
0
 40
0
 40
0
 40
0
 40
0
 40
1
 40
1
 40
1
 40
1
 10
115.491824
 20
154.336044
 30
0.0
 10
114.110911
 20
154.336044
 30
0.0
 10
112.991618
 20
155.455056
 30
0.0
 10
112.991618
 20
156.835687
 30
0.0
  0
SPLINE
  5
148
100
AcDbEntity
  8
FORMAT
 62
7
100
AcDbSpline
 70
8
 71
3
 72
8
 73
4
 74
0
 40
0
 40
0
 40
0
 40
0
 40
1
 40
1
 40
1
 40
1
 10
112.991618
 20
156.835687
 30
0.0
 10
112.991618
 20
158.216318
 30
0.0
 10
114.111193
 20
159.335893
 30
0.0
 10
115.491824
 20
159.335893
 30
0.0
  0
SPLINE
  5
149
100
AcDbEntity
  8
FORMAT
 62
7
100
AcDbSpline
 70
8
 71
3
 72
8
 73
4
 74
0
 40
0
 40
0
 40
0
 40
0
 40
1
 40
1
 40
1
 40
1
 10
115.491824
 20
159.335893
 30
0.0
 10
116.872456
 20
159.335893
 30
0.0
 10
117.991467
 20
158.216318
 30
0.0
 10
117.991467
 20
156.835687
 30
0.0
  0
SPLINE
  5
14a
100
AcDbEntity
  8
FORMAT
 62
7
100
AcDbSpline
 70
8
 71
3
 72
8
 73
4
 74
0
 40
0
 40
0
 40
0
 40
0
 40
1
 40
1
 40
1
 40
1
 10
117.991467
 20
156.835687
 30
0.0
 10
117.991467
 20
155.455056
 30
0.0
 10
116.872456
 20
154.336044
 30
0.0
 10
115.491824
 20
154.336044
 30
0.0
  0
LWPOLYLINE
  5
14b
100
AcDbEntity
  8
FORMAT
 62
7
100
AcDbPolyline
 90
2
 70
0
 10
97.991789
 20
156.818471
 30
0.0
 10
97.991789
 20
156.818471
 30
0.0
  0
SPLINE
  5
14c
100
AcDbEntity
  8
FORMAT
 62
7
100
AcDbSpline
 70
8
 71
3
 72
8
 73
4
 74
0
 40
0
 40
0
 40
0
 40
0
 40
1
 40
1
 40
1
 40
1
 10
132.991860
 20
156.818471
 30
0.0
 10
132.986780
 20
155.437558
 30
0.0
 10
131.864100
 20
154.322216
 30
0.0
 10
130.483187
 20
154.327013
 30
0.0
  0
SPLINE
  5
14d
100
AcDbEntity
  8
FORMAT
 62
7
100
AcDbSpline
 70
8
 71
3
 72
8
 73
4
 74
0
 40
0
 40
0
 40
0
 40
0
 40
1
 40
1
 40
1
 40
1
 10
130.483187
 20
154.327013
 30
0.0
 10
129.102273
 20
154.332093
 30
0.0
 10
127.986649
 20
155.455056
 30
0.0
 10
127.991729
 20
156.835687
 30
0.0
  0
SPLINE
  5
14e
100
AcDbEntity
  8
FORMAT
 62
7
100
AcDbSpline
 70
8
 71
3
 72
8
 73
4
 74
0
 40
0
 40
0
 40
0
 40
0
 40
1
 40
1
 40
1
 40
1
 10
127.991729
 20
156.835687
 30
0.0
 10
127.991729
 20
156.841613
 30
0.0
 10
127.991729
 20
156.847258
 30
0.0
 10
127.991729
 20
156.853184
 30
0.0
  0
SPLINE
  5
14f
100
AcDbEntity
  8
FORMAT
 62
7
100
AcDbSpline
 70
8
 71
3
 72
8
 73
4
 74
0
 40
0
 40
0
 40
0
 40
0
 40
1
 40
1
 40
1
 40
1
 10
127.991729
 20
156.853184
 30
0.0
 10
127.996809
 20
158.233816
 30
0.0
 10
129.119489
 20
159.349440
 30
0.0
 10
130.500402
 20
159.344360
 30
0.0
  0
SPLINE
  5
150
100
AcDbEntity
  8
FORMAT
 62
7
100
AcDbSpline
 70
8
 71
3
 72
8
 73
4
 74
0
 40
0
 40
0
 40
0
 40
0
 40
1
 40
1
 40
1
 40
1
 10
130.500402
 20
159.344360
 30
0.0
 10
131.881316
 20
159.339844
 30
0.0
 10
132.996376
 20
158.216600
 30
0.0
 10
132.991860
 20
156.835687
 30
0.0
  0
SPLINE
  5
151
100
AcDbEntity
  8
FORMAT
 62
7
100
AcDbSpline
 70
8
 71
3
 72
8
 73
4
 74
0
 40
0
 40
0
 40
0
 40
0
 40
1
 40
1
 40
1
 40
1
 10
132.991860
 20
156.835687
 30
0.0
 10
132.991860
 20
156.830042
 30
0.0
 10
132.991860
 20
156.824398
 30
0.0
 10
132.991860
 20
156.818471
 30
0.0
  0
LWPOLYLINE
  5
152
100
AcDbEntity
  8
FORMAT
 62
7
100
AcDbPolyline
 90
2
 70
0
 10
115.491824
 20
154.336044
 30
0.0
 10
115.491824
 20
154.336044
 30
0.0
  0
SPLINE
  5
153
100
AcDbEntity
  8
FORMAT
 62
7
100
AcDbSpline
 70
8
 71
3
 72
8
 73
4
 74
0
 40
0
 40
0
 40
0
 40
0
 40
1
 40
1
 40
1
 40
1
 10
90.936614
 20
199.545657
 30
0.0
 10
90.936614
 20
198.164950
 30
0.0
 10
89.817324
 20
197.045659
 30
0.0
 10
88.436611
 20
197.045659
 30
0.0
  0
SPLINE
  5
154
100
AcDbEntity
  8
FORMAT
 62
7
100
AcDbSpline
 70
8
 71
3
 72
8
 73
4
 74
0
 40
0
 40
0
 40
0
 40
0
 40
1
 40
1
 40
1
 40
1
 10
88.436611
 20
197.045659
 30
0.0
 10
87.055898
 20
197.045659
 30
0.0
 10
85.936613
 20
198.164950
 30
0.0
 10
85.936613
 20
199.545657
 30
0.0
  0
SPLINE
  5
155
100
AcDbEntity
  8
FORMAT
 62
7
100
AcDbSpline
 70
8
 71
3
 72
8
 73
4
 74
0
 40
0
 40
0
 40
0
 40
0
 40
1
 40
1
 40
1
 40
1
 10
85.936613
 20
199.545657
 30
0.0
 10
85.936613
 20
200.926370
 30
0.0
 10
87.055898
 20
202.045660
 30
0.0
 10
88.436611
 20
202.045660
 30
0.0
  0
SPLINE
  5
156
100
AcDbEntity
  8
FORMAT
 62
7
100
AcDbSpline
 70
8
 71
3
 72
8
 73
4
 74
0
 40
0
 40
0
 40
0
 40
0
 40
1
 40
1
 40
1
 40
1
 10
88.436611
 20
202.045660
 30
0.0
 10
89.817324
 20
202.045660
 30
0.0
 10
90.936614
 20
200.926370
 30
0.0
 10
90.936614
 20
199.545657
 30
0.0
  0
LWPOLYLINE
  5
157
100
AcDbEntity
  8
FORMAT
 62
7
100
AcDbPolyline
 90
2
 70
0
 10
132.991860
 20
156.818471
 30
0.0
 10
132.991860
 20
156.818471
 30
0.0
  0
SPLINE
  5
158
100
AcDbEntity
  8
FORMAT
 62
7
100
AcDbSpline
 70
8
 71
3
 72
8
 73
4
 74
0
 40
0
 40
0
 40
0
 40
0
 40
1
 40
1
 40
1
 40
1
 10
83.739948
 20
199.545657
 30
0.0
 10
83.739948
 20
198.164950
 30
0.0
 10
82.620657
 20
197.045659
 30
0.0
 10
81.239944
 20
197.045659
 30
0.0
  0
SPLINE
  5
159
100
AcDbEntity
  8
FORMAT
 62
7
100
AcDbSpline
 70
8
 71
3
 72
8
 73
4
 74
0
 40
0
 40
0
 40
0
 40
0
 40
1
 40
1
 40
1
 40
1
 10
81.239944
 20
197.045659
 30
0.0
 10
79.859231
 20
197.045659
 30
0.0
 10
78.739946
 20
198.164950
 30
0.0
 10
78.739946
 20
199.545657
 30
0.0
  0
SPLINE
  5
15a
100
AcDbEntity
  8
FORMAT
 62
7
100
AcDbSpline
 70
8
 71
3
 72
8
 73
4
 74
0
 40
0
 40
0
 40
0
 40
0
 40
1
 40
1
 40
1
 40
1
 10
78.739946
 20
199.545657
 30
0.0
 10
78.739946
 20
200.926370
 30
0.0
 10
79.859288
 20
202.045660
 30
0.0
 10
81.240001
 20
202.045660
 30
0.0
  0
SPLINE
  5
15b
100
AcDbEntity
  8
FORMAT
 62
7
100
AcDbSpline
 70
8
 71
3
 72
8
 73
4
 74
0
 40
0
 40
0
 40
0
 40
0
 40
1
 40
1
 40
1
 40
1
 10
81.240001
 20
202.045660
 30
0.0
 10
82.620714
 20
202.045660
 30
0.0
 10
83.739948
 20
200.926370
 30
0.0
 10
83.739948
 20
199.545657
 30
0.0
  0
LWPOLYLINE
  5
15c
100
AcDbEntity
  8
FORMAT
 62
7
100
AcDbPolyline
 90
2
 70
0
 10
90.936614
 20
199.545657
 30
0.0
 10
90.936614
 20
199.545657
 30
0.0
  0
LWPOLYLINE
  5
15d
100
AcDbEntity
  8
FORMAT
 62
7
100
AcDbPolyline
 90
2
 70
0
 10
83.739948
 20
199.545657
 30
0.0
 10
83.739948
 20
199.545657
 30
0.0
  0
ENDSEC
  0
SECTION
  2
OBJECTS
  0
DICTIONARY
  5
C
330
0
100
AcDbDictionary
  3
ACAD_GROUP
350
D
  3
ACAD_MLINESTYLE
350
17
  0
DICTIONARY
  5
D
330
C
100
AcDbDictionary
  0
DICTIONARY
  5
1A
330
C
100
AcDbDictionary
  0
DICTIONARY
  5
17
330
C
100
AcDbDictionary
  3
STANDARD
350
18
  0
DICTIONARY
  5
19
330
C
100
AcDbDictionary
  0
ENDSEC
  0
EOF
