<?xml version="1.0" encoding="UTF-8" standalone="no"?>
<!-- Generator: Adobe Illustrator 16.0.0, SVG Export Plug-In . SVG Version: 6.00 Build 0)  -->

<svg
   xmlns:dc="http://purl.org/dc/elements/1.1/"
   xmlns:cc="http://creativecommons.org/ns#"
   xmlns:rdf="http://www.w3.org/1999/02/22-rdf-syntax-ns#"
   xmlns:svg="http://www.w3.org/2000/svg"
   xmlns="http://www.w3.org/2000/svg"
   xmlns:sodipodi="http://sodipodi.sourceforge.net/DTD/sodipodi-0.dtd"
   xmlns:inkscape="http://www.inkscape.org/namespaces/inkscape"
   version="1.1"
   id="svg2"
   sodipodi:docname="monorail_track_connector-custom-space-middle08.svg"
   inkscape:version="0.48.2 r9819"
   x="0px"
   y="0px"
   width="744.094px"
   height="1052.363px"
   viewBox="0 0 744.094 1052.363"
   enable-background="new 0 0 744.094 1052.363"
   xml:space="preserve"><metadata
   id="metadata5055"><rdf:RDF><cc:Work
       rdf:about=""><dc:format>image/svg+xml</dc:format><dc:type
         rdf:resource="http://purl.org/dc/dcmitype/StillImage" /><dc:title></dc:title></cc:Work></rdf:RDF></metadata><defs
   id="defs5053" />
<sodipodi:namedview
   inkscape:window-maximized="0"
   inkscape:window-y="0"
   inkscape:current-layer="svg2"
   inkscape:pageopacity="0"
   inkscape:window-height="630"
   inkscape:window-x="0"
   inkscape:pageshadow="2"
   inkscape:window-width="1337"
   showgrid="false"
   inkscape:cy="707.38183"
   inkscape:cx="292.55716"
   inkscape:zoom="1.1879394"
   borderopacity="1"
   bordercolor="#666666"
   pagecolor="#ffffff"
   id="namedview205"
   guidetolerance="10"
   objecttolerance="10"
   gridtolerance="10"
   showguides="true"
   inkscape:guide-bbox="true">
	<sodipodi:guide
   orientation="1,0"
   position="249.40476,664.28572"
   id="guide5228" /></sodipodi:namedview>
<desc
   id="desc4">
	C:\Documents and Settings\hacklab\My Documents\Dropbox\marcel-hacklab-laser\monorail\hole_template.DXF - scale = 1.000000
	</desc>
<g
   id="g203"
   inkscape:groupmode="layer"
   inkscape:label="FORMAT">
</g>
<path
   fill="none"
   stroke="#000000"
   stroke-width="0.5"
   stroke-linecap="round"
   d="M467.688,426.749H279.891  c-11.741,0-21.26,9.518-21.26,21.26v3.543c0,11.742,9.519,21.26,21.26,21.26h187.796c11.74,0,21.26-9.518,21.26-21.26v-3.543  C488.948,436.267,479.428,426.749,467.688,426.749z M285.207,458.639c-4.893,0-8.858-3.966-8.858-8.858  c0-4.892,3.966-8.858,8.858-8.858s8.858,3.966,8.858,8.858C294.065,454.673,290.099,458.639,285.207,458.639z M347.215,449.841  c-0.018,4.892-3.996,8.845-8.889,8.828c-4.893-0.017-8.846-3.997-8.828-8.889c0-0.021,0-0.041,0-0.061  c0.018-4.892,3.996-8.845,8.889-8.828c4.893,0.017,8.844,3.997,8.828,8.889C347.215,449.801,347.215,449.821,347.215,449.841z   M409.223,458.639c-4.893,0-8.859-3.966-8.859-8.858c0-4.892,3.967-8.858,8.859-8.858s8.857,3.966,8.857,8.858  C418.08,454.673,414.115,458.639,409.223,458.639z M471.231,449.841c-0.018,4.892-3.996,8.845-8.889,8.828  c-4.893-0.017-8.846-3.997-8.828-8.889c0-0.021,0-0.041,0-0.061c0.018-4.892,3.996-8.845,8.889-8.828  c4.893,0.017,8.844,3.997,8.828,8.889C471.231,449.801,471.231,449.821,471.231,449.841z"
   id="path5045" />
<g
   id="g5781"
   transform="translate(0,10.507972)"><path
     inkscape:connector-curvature="0"
     id="path5226"
     d="m 464.14239,343.66198 c -4.893,0 -8.857,-3.966 -8.857,-8.858 0,-4.892 3.965,-8.858 8.857,-8.858 4.892,0 8.859,3.966 8.859,8.858 0,4.892 -3.966,8.858 -8.859,8.858 l 0,0 0,0"
     style="fill:none;stroke:#000000;stroke-width:0.5;stroke-linecap:round" /><path
     inkscape:connector-curvature="0"
     id="path5220"
     d="m 410.99439,325.94498 c 4.893,0 8.857,3.966 8.857,8.858 0,4.892 -3.965,8.858 -8.857,8.858 -4.892,0 -8.859,-3.966 -8.859,-8.858 0,-4.892 3.966,-8.858 8.859,-8.858 l 0,0"
     style="fill:none;stroke:#000000;stroke-width:0.5;stroke-linecap:round" /><path
     sodipodi:nodetypes="sssscssccccs"
     inkscape:connector-curvature="0"
     id="path5214"
     d="m 278.11984,311.77198 c -11.741,0 -21.26,9.519 -21.26,21.26 l 0,3.543 c 0,11.742 9.519,21.26 21.26,21.26 l 95.66927,0 95.66928,0 c 11.74,0 21.26,-9.518 21.26,-21.26 l 0,-3.543 c 10e-4,-11.742 -9.519,-21.26 -21.259,-21.26 l 0,0 -95.66978,0 z"
     style="fill:none;stroke:#000000;stroke-width:0.5;stroke-linecap:round" /></g>

<path
   fill="none"
   stroke="#000000"
   stroke-width="0.5"
   stroke-linecap="round"
   d="M467.688,473.614H279.891  c-11.741,0-21.26,9.518-21.26,21.26v3.543c0,11.741,9.519,21.26,21.26,21.26h187.796c11.74,0,21.26-9.519,21.26-21.26v-3.543  C488.948,483.132,479.428,473.614,467.688,473.614z M285.207,505.503c-4.893,0-8.858-3.965-8.858-8.857s3.966-8.859,8.858-8.859  s8.858,3.967,8.858,8.859S290.099,505.503,285.207,505.503z M347.215,496.707c-0.018,4.893-3.996,8.845-8.889,8.828  c-4.893-0.018-8.846-3.997-8.828-8.889c0-0.021,0-0.041,0-0.062c0.018-4.892,3.996-8.845,8.889-8.827  c4.893,0.016,8.844,3.996,8.828,8.889C347.215,496.666,347.215,496.686,347.215,496.707z M409.223,505.503  c-4.893,0-8.859-3.965-8.859-8.857s3.967-8.859,8.859-8.859s8.857,3.967,8.857,8.859S414.115,505.503,409.223,505.503z   M471.231,496.707c-0.018,4.893-3.996,8.845-8.889,8.828c-4.893-0.018-8.846-3.997-8.828-8.889c0-0.021,0-0.041,0-0.062  c0.018-4.892,3.996-8.845,8.889-8.827c4.893,0.016,8.844,3.996,8.828,8.889C471.231,496.666,471.231,496.686,471.231,496.707z"
   id="path5051" />
<path
   style="fill:none;stroke:#000000;stroke-width:0.49960631;stroke-miterlimit:4;stroke-opacity:1;stroke-dasharray:none"
   d="m 322.21635,345.31146 c 0,4.89227 -3.96599,8.85826 -8.85828,8.85826 -4.89229,0 -8.85826,-3.96599 -8.85826,-8.85826 0,-4.89229 3.96597,-8.85828 8.85826,-8.85828 4.89229,0 8.85828,3.96599 8.85828,8.85828 z"
   id="path5232"
   inkscape:connector-curvature="0" /><path
   inkscape:connector-curvature="0"
   id="path5790"
   d="m 296.71635,345.31146 c 0,4.89227 -3.96599,8.85826 -8.85828,8.85826 -4.89229,0 -8.85826,-3.96599 -8.85826,-8.85826 0,-4.89229 3.96617,-8.85828 8.85846,-8.85828 4.89229,0 8.85808,3.96599 8.85808,8.85828 z"
   style="fill:none;stroke:#000000;stroke-width:0.49960631;stroke-miterlimit:4;stroke-opacity:1;stroke-dasharray:none"
   sodipodi:nodetypes="sssss" /></svg>